<svg width="20" height="20" viewBox="0 0 20 20" fill="none" xmlns="http://www.w3.org/2000/svg">
<g id="fi_8200971" clip-path="url(#clip0_0_1673)">
<g id="Group">
<path id="Vector" d="M19.2188 6.09375H13.75V0.78125C13.75 0.349766 13.4002 0 12.9688 0H6.71875C6.28727 0 5.9375 0.349766 5.9375 0.78125V12.1875H4.375V2.34375C4.375 1.05141 3.32359 0 2.03125 0H0.78125C0.349766 0 0 0.349766 0 0.78125C0 1.21273 0.349766 1.5625 0.78125 1.5625H2.03125C2.46203 1.5625 2.8125 1.91297 2.8125 2.34375V17.6562C2.8125 18.0877 3.16227 18.4375 3.59375 18.4375H4.50938C4.83187 19.3468 5.70027 20 6.71875 20C7.73723 20 8.60559 19.3468 8.92813 18.4375H13.8844C14.2069 19.3468 15.0753 20 16.0938 20C17.1122 20 17.9806 19.3468 18.3031 18.4375H19.2188C19.6502 18.4375 20 18.0877 20 17.6562V6.875C20 6.44352 19.6502 6.09375 19.2188 6.09375ZM18.4375 12.1875H13.75V7.65625H15.3125V8.4375C15.3125 8.86898 15.6623 9.21875 16.0938 9.21875C16.5252 9.21875 16.875 8.86898 16.875 8.4375V7.65625H18.4375V12.1875ZM9.0625 1.5625V2.34375C9.0625 2.77523 9.41227 3.125 9.84375 3.125C10.2752 3.125 10.625 2.77523 10.625 2.34375V1.5625H12.1875V6.09375H7.5V1.5625H9.0625ZM7.5 7.65625H9.0625V8.4375C9.0625 8.86898 9.41227 9.21875 9.84375 9.21875C10.2752 9.21875 10.625 8.86898 10.625 8.4375V7.65625H12.1875V12.1875H7.5V7.65625ZM6.71875 18.4375C6.28797 18.4375 5.9375 18.087 5.9375 17.6562C5.9375 17.2255 6.28797 16.875 6.71875 16.875C7.14941 16.875 7.49977 17.2253 7.5 17.6559V17.6562C7.5 17.6562 7.5 17.6565 7.5 17.6566C7.49977 18.0872 7.14941 18.4375 6.71875 18.4375ZM16.0938 18.4375C15.6632 18.4375 15.313 18.0874 15.3125 17.657C15.3125 17.6567 15.3126 17.6565 15.3126 17.6562C15.3126 17.656 15.3125 17.6557 15.3125 17.6555C15.313 17.2251 15.6632 16.875 16.0938 16.875C16.5245 16.875 16.875 17.2255 16.875 17.6562C16.875 18.087 16.5245 18.4375 16.0938 18.4375ZM18.4375 16.875H18.3031C17.9806 15.9657 17.1122 15.3125 16.0938 15.3125C15.0753 15.3125 14.2069 15.9657 13.8844 16.875H8.92813C8.60563 15.9657 7.73723 15.3125 6.71875 15.3125C5.70027 15.3125 4.83191 15.9657 4.50938 16.875H4.375V13.75H18.4375V16.875Z" fill="#90959A"/>
</g>
</g>
<defs>
<clipPath id="clip0_0_1673">
<rect width="20" height="20" fill="white"/>
</clipPath>
</defs>
</svg>
