<svg width="99" height="30" viewBox="0 0 99 30" fill="none" xmlns="http://www.w3.org/2000/svg">
<g id="Group">
<g id="Group_2">
<path id="Vector" d="M29.1344 20.959V18.6235C29.6412 19.0074 30.4251 19.3913 31.4537 19.3913C32.8975 19.3913 33.5272 18.6688 33.5272 17.9626C33.5272 17.3793 33.2048 16.8876 32.3595 16.4725L31.2068 15.9042C29.9313 15.2745 29.1172 14.399 29.1172 13.0469C29.1172 11.1265 30.8068 9.72803 33.4959 9.72803C34.4944 9.72803 35.2621 9.9124 35.6621 10.1431V12.4786C35.247 12.2026 34.5257 11.9568 33.7569 11.9568C32.5891 11.9568 31.9131 12.4172 31.9131 13.1396C31.9131 13.6162 32.2053 13.9386 32.9115 14.2761L34.0178 14.8292C35.5079 15.5818 36.2142 16.5954 36.2142 17.9788C36.2142 19.9757 34.7855 21.6653 31.7438 21.6653C30.6688 21.6653 29.7005 21.3731 29.1323 20.959H29.1344Z" fill="#010101"/>
<path id="Vector_2" d="M39.7795 12.2326H37.2295V9.89709H45.0187V12.2326H42.4687V21.4192H39.7806V12.2326H39.7795Z" fill="#010101"/>
<path id="Vector_3" d="M52.0256 19.5456H47.9391L47.1865 21.4196H44.2979L49.8131 9.78967H50.1355L55.6507 21.4196H52.7621L52.0246 19.5456H52.0256ZM49.9673 14.369L48.6464 17.6878H51.3043L49.9673 14.369Z" fill="#010101"/>
<path id="Vector_4" d="M57.0645 9.89832H59.7374V21.4204H57.0645V9.89832Z" fill="#010101"/>
<path id="Vector_5" d="M61.9323 20.959V18.6235C62.4391 19.0074 63.223 19.3913 64.2516 19.3913C65.6954 19.3913 66.3251 18.6688 66.3251 17.9626C66.3251 17.3793 66.0027 16.8876 65.1573 16.4725L64.0047 15.9042C62.7291 15.2745 61.915 14.399 61.915 13.0469C61.915 11.1265 63.6046 9.72803 66.2938 9.72803C67.2922 9.72803 68.06 9.9124 68.46 10.1431V12.4786C68.0449 12.2026 67.3235 11.9568 66.5547 11.9568C65.387 11.9568 64.7109 12.4172 64.7109 13.1396C64.7109 13.6162 65.0031 13.9386 65.7094 14.2761L66.8157 14.8292C68.3058 15.5818 69.0121 16.5954 69.0121 17.9788C69.0121 19.9757 67.5834 21.6653 64.5416 21.6653C63.4666 21.6653 62.4984 21.3731 61.9301 20.959H61.9323Z" fill="#010101"/>
<path id="Vector_6" d="M81.3985 9.89832V21.4204H78.7104V16.6276H73.5338V21.4204H70.8457V9.89832H73.5338V14.1843H78.7104V9.89832H81.3985Z" fill="#010101"/>
<path id="Vector_7" d="M83.8408 9.89832H86.5138V21.4204H83.8408V9.89832Z" fill="#010101"/>
<path id="Vector_8" d="M98.2818 14.1078C98.2818 16.9188 96.2698 18.6245 93.0739 18.6245C92.5358 18.6245 92.0754 18.5944 91.6754 18.5167V21.4204H88.9561V9.89832H93.3963C96.4229 9.89832 98.2818 11.6343 98.2818 14.1078ZM95.5323 14.1994C95.5323 13.1244 94.8411 12.2489 93.1817 12.2489H91.6765V16.2427C92.0754 16.3042 92.5218 16.3344 93.0135 16.3344C94.826 16.3344 95.5333 15.4739 95.5333 14.1994H95.5323Z" fill="#010101"/>
</g>
<path id="Vector_9" d="M6.48995 4.02078C7.83776 3.26277 9.77536 2.87783 12.2489 2.87783H22.9073L23.4141 0H12.2478C9.23193 0 6.88675 0.494918 5.07853 1.51278C3.37059 2.4735 2.17374 3.9054 1.52248 5.76753C0.547748 8.55264 1.323 11.5685 3.82561 14.7288C4.92434 16.1165 6.26029 17.4104 7.57251 18.5415H2.02063L1.51385 21.4193H13.146V12.9508C14.5973 14.1379 16.1402 15.5504 17.3328 17.0567C18.2374 18.1986 18.8553 19.292 19.1701 20.3034C19.5022 21.3708 19.5044 22.3445 19.1755 23.2815C18.7561 24.4805 18.0196 25.3625 16.9241 25.9792C15.5763 26.7372 13.6398 27.1222 11.1652 27.1222H0.506776L0 30H11.1663C14.1822 30 16.5273 29.5051 18.3355 28.4883C20.0435 27.5276 21.2403 26.0957 21.8916 24.2335C22.8663 21.4484 22.0911 18.4326 19.5885 15.2723C18.4897 13.8846 17.1538 12.5907 15.8416 11.4596H21.3934L21.9002 8.58175H10.2681V17.0503C8.8168 15.8631 7.27383 14.4506 6.0813 12.9443C5.17665 11.8025 4.55882 10.7091 4.24397 9.69773C3.91187 8.63026 3.91079 7.65661 4.23858 6.71961C4.65802 5.52061 5.39446 4.63861 6.48995 4.02186V4.02078Z" fill="#F99C23"/>
</g>
</svg>
