<svg width="20" height="20" viewBox="0 0 20 20" fill="none" xmlns="http://www.w3.org/2000/svg">
<g id="fi_1445395" clip-path="url(#clip0_0_3421)">
<path id="Vector" d="M17.5918 10.8133V9.18671C19.0304 8.32123 19.5163 6.46133 18.6725 5C17.8296 3.54004 15.9759 3.02826 14.5057 3.84293L13.0977 3.02887C13.067 1.35361 11.6948 0 10.0122 0C8.32975 0 6.95738 1.35361 6.92686 3.02887L5.51878 3.84293C4.04997 3.02902 2.19572 3.53851 1.35206 5C0.509316 6.4595 0.992409 8.32031 2.43253 9.18671V10.8133C0.994088 11.6788 0.508248 13.5387 1.35206 15C2.1948 16.4598 4.04844 16.9716 5.51878 16.1571L6.92686 16.9711C6.95738 18.6464 8.32975 20 10.0122 20C11.6948 20 13.067 18.6464 13.0977 16.9711L14.5057 16.1571C15.9746 16.971 17.8287 16.4615 18.6725 15C19.5152 13.5406 19.0321 11.6797 17.5918 10.8133ZM16.7618 12.1378C17.4908 12.5587 17.7405 13.4895 17.3193 14.2188C16.8983 14.9478 15.9677 15.1974 15.2383 14.7763L14.8956 14.5786C14.6538 14.4389 14.3558 14.4391 14.1139 14.5789L11.9259 15.8438C11.401 16.1472 11.5646 16.7329 11.5356 16.9141C11.5356 17.7541 10.8523 18.4375 10.0122 18.4375C9.17219 18.4375 8.48875 17.7541 8.48875 16.9141C8.45884 16.7265 8.6244 16.1478 8.09858 15.8438C5.89826 14.6104 5.88575 14.4739 5.51954 14.4739C5.20765 14.4739 5.0517 14.6422 4.7862 14.7765C4.05714 15.1974 3.1262 14.948 2.70521 14.2188C2.28422 13.4897 2.53355 12.5587 3.26276 12.1378L3.60441 11.9405C3.84626 11.801 3.99519 11.543 3.99519 11.2639V8.73627C3.99519 8.12897 3.40742 7.97974 3.26276 7.8624C2.53355 7.44125 2.28407 6.51047 2.70521 5.78125C3.12605 5.05234 4.05683 4.80255 4.7862 5.22369L5.12891 5.42145C5.37077 5.56107 5.66877 5.56091 5.91047 5.42114L8.09858 4.15619C8.34013 4.01657 8.48875 3.75885 8.48875 3.47992V3.08594C8.48875 2.24594 9.17219 1.5625 10.0122 1.5625C10.8523 1.5625 11.5356 2.24594 11.5356 3.08594V3.47992C11.5356 3.75885 11.6844 4.01657 11.9259 4.15619L14.1139 5.42114C14.6394 5.7251 15.0674 5.289 15.2383 5.22354C15.9674 4.8027 16.8982 5.05188 17.3193 5.78125C17.7403 6.51031 17.491 7.44125 16.7618 7.86224L16.4201 8.05954C16.1784 8.19901 16.0293 8.45703 16.0293 8.73611V11.2637C16.0293 11.871 16.6171 12.0203 16.7618 12.1378ZM10.0122 6.14578C7.88709 6.14578 6.15812 7.87476 6.15812 10C6.15812 12.1252 7.88709 13.8542 10.0122 13.8542C12.1374 13.8542 13.8664 12.1252 13.8664 10C13.8664 7.87476 12.1374 6.14578 10.0122 6.14578ZM10.0122 12.2917C8.7486 12.2917 7.72062 11.2636 7.72062 10C7.72062 8.73642 8.7486 7.70828 10.0122 7.70828C11.2759 7.70828 12.3039 8.73642 12.3039 10C12.3039 11.2636 11.2759 12.2917 10.0122 12.2917Z" fill="#90959A"/>
</g>
<defs>
<clipPath id="clip0_0_3421">
<rect width="20" height="20" fill="white"/>
</clipPath>
</defs>
</svg>
