<svg width="20" height="20" viewBox="0 0 20 20" fill="none" xmlns="http://www.w3.org/2000/svg">
<g id="fi_8974508">
<g id="Group">
<path id="Vector" d="M14.6875 10.625H12.3438V9.99801C13.7827 9.16727 14.6875 7.625 14.6875 5.9375V5.15457C15.3729 4.85797 15.8111 4.61047 15.8564 4.58457C16.231 4.37051 16.3611 3.89328 16.1471 3.51863C15.933 3.14402 15.4558 3.01387 15.0811 3.22793C15.0752 3.23129 14.9331 3.3116 14.6875 3.43281V2.34375C14.6875 1.05141 13.6361 0 12.3438 0H7.65625C6.36391 0 5.3125 1.05141 5.3125 2.34375V3.43203C5.06656 3.31102 4.92414 3.23094 4.9182 3.22754C4.54371 3.01406 4.06691 3.14422 3.85293 3.51863C3.63887 3.89324 3.76902 4.37051 4.14363 4.58457C4.18891 4.61047 4.62707 4.85797 5.3125 5.15457V5.9375C5.3125 7.62504 6.2173 9.1673 7.65625 9.99801V10.625H5.3125C3.15859 10.625 1.40625 12.3773 1.40625 14.5312V19.2188C1.40625 19.6502 1.75602 20 2.1875 20H17.8125C18.244 20 18.5938 19.6502 18.5938 19.2188V14.5312C18.5938 12.3773 16.8414 10.625 14.6875 10.625ZM6.875 16.875H13.125C13.5558 16.875 13.9062 17.2255 13.9062 17.6562V18.4375H6.09375V17.6562C6.09375 17.2255 6.44422 16.875 6.875 16.875ZM12.3438 15.3125H7.65625V12.1875H7.79063C8.11312 13.0968 8.98152 13.75 10 13.75C11.0185 13.75 11.8868 13.0968 12.2094 12.1875H12.3438V15.3125ZM6.875 2.34375C6.875 1.91297 7.22547 1.5625 7.65625 1.5625H12.3438C12.7745 1.5625 13.125 1.91297 13.125 2.34375V4.08828C12.2211 4.40484 11.1048 4.6875 10 4.6875C8.89848 4.6875 7.78078 4.40379 6.875 4.08652V2.34375ZM6.875 5.9375V5.73313C7.81031 6.02121 8.89941 6.25 10 6.25C11.1006 6.25 12.1897 6.02121 13.125 5.73313V5.9375C13.125 7.18035 12.3889 8.30508 11.2497 8.80281C10.9652 8.92715 10.7812 9.20816 10.7812 9.51871V11.4062C10.7812 11.837 10.4308 12.1875 10 12.1875C9.56922 12.1875 9.21875 11.837 9.21875 11.4062V9.51871C9.21875 9.20816 9.03484 8.92715 8.75027 8.80281C7.61109 8.30508 6.875 7.18035 6.875 5.9375ZM2.96875 14.5312C2.96875 13.2389 4.02016 12.1875 5.3125 12.1875H6.09375V15.4469C5.18445 15.7694 4.53125 16.6378 4.53125 17.6562V18.4375H2.96875V14.5312ZM17.0312 18.4375H15.4688V17.6562C15.4688 16.6378 14.8155 15.7694 13.9062 15.4469V12.1875H14.6875C15.9798 12.1875 17.0312 13.2389 17.0312 14.5312V18.4375Z" fill="#90959A"/>
</g>
</g>
</svg>
